#
#
#

mtllib asteroid.mtl


#
# 08_-_Default Mesh
#
g 08_-_Default Mesh


#
# 08_-_Default Mesh_08_-_Default
#
usemtl 08_-_Default Mesh_08_-_Default

v 0.012901 0.764162 0.008523
v 0.195326 0.687578 -0.000005
v 0.060359 0.687578 -0.185772
v 0.375784 0.608031 -0.000005
v 0.258611 0.639322 -0.187897
v 0.116124 0.608031 -0.357397
v 0.527636 0.482199 -0.000005
v 0.441640 0.529224 -0.189192
v 0.316401 0.529224 -0.361568
v 0.175079 0.531093 -0.538845
v 0.639322 0.319661 -0.000005
v 0.587995 0.361481 -0.185772
v 0.491908 0.375784 -0.357397
v 0.358375 0.361481 -0.501817
v 0.230946 0.373678 -0.710784
v -0.194449 0.870946 -0.149775
v -0.098781 0.639322 -0.304021
v -0.325203 0.633723 -0.240865
v -0.043453 0.529224 -0.478491
v -0.246093 0.529224 -0.412650
v -0.426866 0.482199 -0.310142
v 0.005026 0.361481 -0.616627
v -0.187892 0.375784 -0.578277
v -0.366507 0.361481 -0.495908
v -0.517222 0.319661 -0.375789
v -0.160896 0.707854 0.124661
v -0.372134 0.711577 0.008196
v -0.304016 0.608031 0.220875
v -0.468495 0.529224 -0.106539
v -0.468495 0.529224 0.106529
v -0.426866 0.482199 0.310131
v -0.584889 0.361481 -0.195332
v -0.643488 0.402707 0.002497
v -0.584888 0.361481 0.195321
v -0.517222 0.319661 0.375779
v 0.060359 0.687578 0.185761
v -0.098781 0.639322 0.304010
v 0.116124 0.608031 0.357386
v -0.246093 0.529224 0.412639
v -0.043453 0.529224 0.478481
v 0.163048 0.482199 0.501806
v -0.366507 0.361481 0.495898
v -0.187892 0.375784 0.578267
v 0.005377 0.395148 0.674007
v 0.197561 0.319661 0.608026
v 0.258611 0.639322 0.187887
v 0.316401 0.529224 0.361557
v 0.441640 0.529224 0.189181
v 0.358375 0.361481 0.501806
v 0.491908 0.375784 0.357386
v 0.587995 0.361481 0.185761
v 0.685658 0.166155 0.114805
v 0.727614 0.195773 -0.119340
v 0.820250 0.000117 0.294229
v 0.827213 -0.002217 -0.001288
v 0.870807 0.000159 -0.318120
v 0.622193 -0.166155 0.310131
v 0.846991 -0.280660 0.155264
v 0.751147 -0.229839 -0.114807
v 0.681878 -0.217749 -0.360770
v 0.517222 -0.319661 0.375778
v 0.611263 -0.383248 0.210224
v 0.639625 -0.401033 0.002007
v 0.584889 -0.361481 -0.195332
v 0.517222 -0.319661 -0.375789
v 0.364850 0.174529 -0.685300
v 0.099595 0.174723 -0.773827
v 0.444700 -0.006824 -0.636293
v 0.220880 0.000000 -0.679805
v 0.000000 0.000000 -0.714789
v 0.487225 -0.166155 -0.495908
v 0.312338 -0.182358 -0.616532
v 0.109698 -0.182358 -0.682374
v -0.102689 -0.166155 -0.687583
v 0.366507 -0.361481 -0.495908
v 0.187892 -0.375784 -0.578277
v -0.005026 -0.361481 -0.616627
v -0.197561 -0.319661 -0.608037
v -0.487225 0.166155 -0.495908
v -0.622193 0.166155 -0.310142
v -0.420139 0.000000 -0.578277
v -0.578272 0.000000 -0.420144
v -0.720168 0.002667 -0.240518
v -0.321071 -0.166155 -0.616627
v -0.489834 -0.182358 -0.487574
v -0.615073 -0.182358 -0.315198
v -0.800989 -0.194471 -0.134245
v -0.358375 -0.361481 -0.501817
v -0.491908 -0.375784 -0.357397
v -0.587995 -0.361481 -0.185772
v -0.639322 -0.319661 -0.000005
v -0.622193 0.166155 0.310131
v -0.487225 0.166155 0.495898
v -0.679799 0.000000 0.220875
v -0.578272 0.000000 0.420134
v -0.420139 0.000000 0.578267
v -0.685658 -0.166155 0.114805
v -0.615073 -0.182358 0.315188
v -0.489834 -0.182358 0.487564
v -0.321071 -0.166155 0.616616
v -0.665155 -0.397723 0.207728
v -0.491908 -0.375784 0.357386
v -0.358375 -0.361481 0.501806
v -0.197561 -0.319661 0.608026
v 0.114604 0.179754 0.730136
v 0.321071 0.166155 0.616616
v 0.000000 0.000000 0.815665
v 0.254705 0.005942 0.732805
v 0.420139 0.000000 0.578267
v -0.153497 -0.209310 0.796123
v 0.142359 -0.239245 0.820228
v 0.312339 -0.182358 0.616522
v 0.487225 -0.166155 0.495897
v -0.011996 -0.414885 0.674513
v 0.187892 -0.375784 0.578267
v 0.366507 -0.361481 0.495897
v 0.684032 -0.043789 -0.600753
v 0.517968 0.204010 -0.512074
v 0.615073 0.182358 -0.315198
v -0.220880 0.000000 -0.679805
v -0.312339 0.182358 -0.616532
v -0.109698 0.182358 -0.682374
v -0.764620 0.002381 0.010251
v -0.682870 0.182358 0.106529
v -0.765968 0.205558 -0.118929
v -0.220880 0.000000 0.679794
v -0.109698 0.182358 0.682364
v -0.312338 0.182358 0.616522
v 0.578272 0.000000 0.420134
v 0.615073 0.182358 0.315188
v 0.489834 0.182358 0.487563
v 0.000000 -0.714784 -0.000005
v -0.060359 -0.687578 -0.185772
v 0.158022 -0.687578 -0.114815
v -0.140710 -0.673642 -0.399746
v 0.115121 -0.744354 -0.354310
v 0.304016 -0.608031 -0.220886
v -0.163048 -0.482199 -0.501817
v 0.052036 -0.577704 -0.550127
v 0.300603 -0.588815 -0.470273
v 0.426866 -0.482199 -0.310142
v -0.195326 -0.687578 -0.000005
v -0.405660 -0.658963 -0.019519
v -0.258611 -0.639322 -0.187897
v -0.587273 -0.521769 -0.020998
v -0.441640 -0.529224 -0.189192
v -0.316401 -0.529224 -0.361568
v -0.077125 -0.880053 0.237360
v -0.121556 -0.653601 0.313667
v -0.314607 -0.751821 0.222861
v -0.163048 -0.482199 0.501806
v -0.316401 -0.529224 0.361557
v -0.548808 -0.664657 0.237399
v 0.158022 -0.687578 0.114805
v 0.304016 -0.608031 0.220875
v 0.156340 -0.773253 0.382351
v 0.426866 -0.482199 0.310131
v 0.246093 -0.529224 0.412639
v 0.047595 -0.577406 0.522392
v 0.345771 -0.700285 0.002249
v 0.524064 -0.586812 -0.120118
v 0.468495 -0.529224 0.106529
vn 0.292069 0.942405 0.162999
vn 0.347098 0.937828 -0.001247
vn 0.294841 0.880229 -0.371840
vn 0.525048 0.851073 0.000000
vn 0.363841 0.893189 -0.264259
vn 0.132813 0.902960 -0.408686
vn 0.739432 0.673231 0.000000
vn 0.619760 0.737619 -0.267986
vn 0.502883 0.747469 -0.434050
vn 0.184607 0.801996 -0.568086
vn 0.852173 0.519503 0.062601
vn 0.780855 0.558565 -0.279767
vn 0.682921 0.569078 -0.458005
vn 0.623359 0.588458 -0.514918
vn 0.263395 0.551994 -0.791155
vn -0.147780 0.956066 -0.253178
vn -0.028390 0.761953 -0.647009
vn -0.557587 0.638192 -0.530857
vn -0.151665 0.747523 -0.646690
vn -0.326278 0.706843 -0.627627
vn -0.635237 0.619727 -0.460883
vn -0.244163 0.545939 -0.801458
vn -0.262879 0.525757 -0.808996
vn -0.511220 0.505957 -0.694739
vn -0.723627 0.447194 -0.525720
vn -0.146668 0.876547 0.458425
vn -0.659207 0.732606 0.169510
vn -0.427372 0.789794 0.439975
vn -0.735127 0.644552 -0.210096
vn -0.698679 0.673335 0.241802
vn -0.598190 0.673258 0.434619
vn -0.718282 0.571883 -0.396260
vn -0.791383 0.608426 0.059416
vn -0.797354 0.491958 0.349578
vn -0.723627 0.447194 0.525720
vn 0.135446 0.931226 0.338338
vn -0.130182 0.877343 0.461869
vn 0.162189 0.851109 0.499308
vn -0.343874 0.737605 0.581110
vn -0.089333 0.791115 0.605109
vn 0.287094 0.705201 0.648281
vn -0.511220 0.505957 0.694739
vn -0.364104 0.522681 0.770865
vn -0.030747 0.550821 0.834057
vn 0.429451 0.472797 0.769438
vn 0.363841 0.893189 0.264259
vn 0.446371 0.737627 0.506616
vn 0.619760 0.737619 0.267986
vn 0.502738 0.505924 0.700925
vn 0.688199 0.525740 0.499979
vn 0.821985 0.505933 0.261484
vn 0.829307 0.530297 0.176166
vn 0.806737 0.586806 -0.069525
vn 0.805546 0.191691 0.560669
vn 0.974429 0.222695 0.029914
vn 0.947692 0.120902 -0.295401
vn 0.588774 -0.344317 0.731294
vn 0.832492 -0.497196 0.244443
vn 0.810194 -0.535143 -0.239180
vn 0.587322 -0.682877 -0.434432
vn 0.688847 -0.424886 0.587334
vn 0.592378 -0.668555 0.449581
vn 0.707571 -0.702585 -0.075618
vn 0.721940 -0.582759 -0.373088
vn 0.585150 -0.579472 -0.567284
vn 0.533500 0.146948 -0.832937
vn -0.068830 0.058859 -0.995890
vn 0.332268 -0.160940 -0.929353
vn 0.218542 -0.226852 -0.949093
vn -0.070770 -0.125752 -0.989534
vn 0.388347 -0.567010 -0.726420
vn 0.382550 -0.339891 -0.859145
vn 0.154699 -0.259540 -0.953261
vn -0.142645 -0.235295 -0.961399
vn 0.582105 -0.375882 -0.721018
vn 0.287501 -0.334310 -0.897541
vn -0.045563 -0.392206 -0.918748
vn -0.276438 -0.447203 -0.850642
vn -0.680432 0.235305 -0.694005
vn -0.769377 0.288776 -0.569796
vn -0.587809 -0.000000 -0.809000
vn -0.770260 -0.001246 -0.637729
vn -0.857287 0.049720 -0.512433
vn -0.449714 -0.235314 -0.861617
vn -0.685432 -0.259547 -0.680308
vn -0.740822 -0.307464 -0.597200
vn -0.932098 -0.321179 -0.167445
vn -0.502738 -0.505924 -0.700925
vn -0.688199 -0.525740 -0.499979
vn -0.749369 -0.547036 -0.373092
vn -0.907602 -0.418414 -0.034487
vn -0.870308 0.235305 0.432661
vn -0.680432 0.235305 0.694005
vn -0.925662 -0.000554 0.378352
vn -0.808996 -0.002770 0.587807
vn -0.587809 0.000000 0.809000
vn -0.935390 -0.197493 0.293331
vn -0.845921 -0.161484 0.508273
vn -0.685432 -0.259547 0.680308
vn -0.591776 -0.224634 0.774171
vn -0.925466 -0.227696 0.302764
vn -0.594398 -0.363951 0.717099
vn -0.502738 -0.505924 0.700925
vn -0.509118 -0.559392 0.654125
vn 0.208013 0.372679 0.904346
vn 0.537495 0.320475 0.779997
vn -0.108166 0.260097 0.959505
vn 0.555777 0.123537 0.822101
vn 0.659406 -0.000416 0.751787
vn -0.479636 -0.247089 0.841960
vn 0.366325 -0.352059 0.861313
vn 0.641637 -0.318256 0.697865
vn 0.680432 -0.235305 0.694005
vn -0.082825 -0.696808 0.712459
vn 0.483498 -0.581832 0.653989
vn 0.511220 -0.505957 0.694739
vn 0.552315 -0.103178 -0.827226
vn 0.649970 0.517705 -0.556346
vn 0.704268 0.587097 -0.399154
vn -0.308988 0.002770 -0.951062
vn -0.435154 0.259541 -0.862137
vn -0.281412 0.256899 -0.924559
vn -0.974732 0.042795 0.219239
vn -0.903365 0.266730 0.335836
vn -0.934111 0.311739 -0.173943
vn -0.499024 0.163848 0.850958
vn -0.326697 0.296091 0.897552
vn -0.435154 0.259541 0.862137
vn 0.673372 -0.003324 0.739296
vn 0.755223 0.429202 0.495403
vn 0.685432 0.259547 0.680308
vn 0.090715 -0.955896 -0.279345
vn -0.160098 -0.987042 -0.010802
vn 0.156771 -0.986743 -0.041963
vn -0.399164 -0.803177 -0.442239
vn 0.156358 -0.964460 -0.213001
vn 0.464668 -0.849422 -0.250131
vn -0.372450 -0.510820 -0.774818
vn -0.029778 -0.523262 -0.851651
vn 0.572524 -0.589974 -0.569339
vn 0.678828 -0.576886 -0.454307
vn -0.178375 -0.930932 -0.318666
vn -0.369080 -0.862388 -0.346506
vn -0.369363 -0.896748 -0.243749
vn -0.793142 -0.518929 -0.318808
vn -0.572107 -0.693840 -0.437355
vn -0.547450 -0.670152 -0.501194
vn -0.101241 -0.976815 0.188632
vn -0.313003 -0.558420 0.768242
vn -0.317724 -0.888629 0.330743
vn -0.393607 -0.659105 0.640823
vn -0.315644 -0.572424 0.756769
vn -0.617841 -0.692215 0.372976
vn 0.337384 -0.937778 -0.082130
vn 0.586926 -0.754638 0.293324
vn 0.383244 -0.786294 0.484630
vn 0.556332 -0.693164 0.458278
vn 0.562972 -0.543306 0.622801
vn 0.030746 -0.655080 0.754934
vn 0.344020 -0.937054 0.059830
vn 0.675182 -0.704960 -0.217166
vn 0.627811 -0.715065 0.307465
vt 0.600000 1.000000
vt 0.500000 0.911896
vt 0.700000 0.911896
vt 0.500000 0.823792
vt 0.600000 0.852416
vt 0.700000 0.823792
vt 0.500000 0.735688
vt 0.564414 0.765363
vt 0.635586 0.765363
vt 0.700000 0.735688
vt 0.500000 0.647584
vt 0.548703 0.668773
vt 0.600000 0.676208
vt 0.651297 0.668773
vt 0.700000 0.647584
vt 0.800000 1.000000
vt 0.900000 0.911896
vt 0.800000 0.852416
vt 0.900000 0.823792
vt 0.764414 0.765363
vt 0.835586 0.765363
vt 0.900000 0.735688
vt 0.748703 0.668773
vt 0.800000 0.676208
vt 0.851297 0.668773
vt 0.900000 0.647584
vt 0.000000 1.000000
vt -0.100000 0.911896
vt 0.100000 0.911896
vt -0.100000 0.823792
vt 0.000000 0.852416
vt 0.100000 0.823792
vt 0.964414 0.765363
vt -0.035586 0.765363
vt 0.035586 0.765363
vt 0.100000 0.735688
vt 0.948703 0.668773
vt -0.051297 0.668773
vt 0.000000 0.676208
vt 0.051297 0.668773
vt 0.100000 0.647584
vt 0.200000 1.000000
vt 0.300000 0.911896
vt 0.200000 0.852416
vt 0.300000 0.823792
vt 0.164414 0.765363
vt 0.235586 0.765363
vt 0.300000 0.735688
vt 0.148703 0.668773
vt 0.200000 0.676208
vt 0.251297 0.668773
vt 0.300000 0.647584
vt 0.400000 1.000000
vt 0.400000 0.852416
vt 0.364414 0.765363
vt 0.435586 0.765363
vt 0.348703 0.668773
vt 0.400000 0.676208
vt 0.451297 0.668773
vt 0.473595 0.574676
vt 0.526405 0.574676
vt 0.450000 0.500000
vt 0.500000 0.500000
vt 0.550000 0.500000
vt 0.426405 0.425324
vt 0.475369 0.417884
vt 0.524631 0.417884
vt 0.573595 0.425324
vt 0.400000 0.352416
vt 0.448703 0.331227
vt 0.500000 0.323792
vt 0.551297 0.331227
vt 0.600000 0.352416
vt 0.673595 0.574676
vt 0.726405 0.574676
vt 0.650000 0.500000
vt 0.700000 0.500000
vt 0.750000 0.500000
vt 0.626405 0.425324
vt 0.675369 0.417884
vt 0.724631 0.417884
vt 0.773595 0.425324
vt 0.648703 0.331227
vt 0.700000 0.323792
vt 0.751297 0.331227
vt 0.800000 0.352416
vt 0.873595 0.574676
vt 0.926405 0.574676
vt 0.850000 0.500000
vt 0.900000 0.500000
vt 0.950000 0.500000
vt 0.826405 0.425324
vt 0.875369 0.417884
vt 0.924631 0.417884
vt 0.973595 0.425324
vt 0.848703 0.331227
vt 0.900000 0.323792
vt 0.951297 0.331227
vt -0.026405 0.425324
vt -0.048703 0.331227
vt 0.000000 0.352416
vt 0.073595 0.574676
vt 0.126405 0.574676
vt 0.050000 0.500000
vt 0.100000 0.500000
vt 0.150000 0.500000
vt 0.026405 0.425324
vt 0.075369 0.417884
vt 0.124631 0.417884
vt 0.173595 0.425324
vt 0.048703 0.331227
vt 0.100000 0.323792
vt 0.151297 0.331227
vt 0.200000 0.352416
vt 0.273595 0.574676
vt 0.326405 0.574676
vt 0.250000 0.500000
vt 0.300000 0.500000
vt 0.350000 0.500000
vt 0.226405 0.425324
vt 0.275369 0.417884
vt 0.324631 0.417884
vt 0.373595 0.425324
vt 0.248703 0.331227
vt 0.300000 0.323792
vt 0.351297 0.331227
vt 0.600000 0.500000
vt 0.624631 0.582116
vt 0.575369 0.582116
vt 0.800000 0.500000
vt 0.824631 0.582116
vt 0.775369 0.582116
vt 0.000000 0.500000
vt -0.050000 0.500000
vt 0.024631 0.582116
vt -0.024631 0.582116
vt 0.975369 0.582116
vt 0.200000 0.500000
vt 0.224631 0.582116
vt 0.175369 0.582116
vt 0.400000 0.500000
vt 0.424631 0.582116
vt 0.375369 0.582116
vt 0.700000 0.000000
vt 0.800000 0.088104
vt 0.600000 0.088104
vt 0.800000 0.176208
vt 0.700000 0.147584
vt 0.600000 0.176208
vt 0.800000 0.264312
vt 0.735586 0.234637
vt 0.664414 0.234637
vt 0.600000 0.264312
vt -0.100000 0.000000
vt 0.000000 0.088104
vt -0.200000 0.088104
vt 0.000000 0.176208
vt -0.100000 0.147584
vt 0.900000 0.147584
vt 0.000000 0.264312
vt -0.064414 0.234637
vt 0.935586 0.234637
vt 0.864414 0.234637
vt 0.100000 0.000000
vt 0.200000 0.088104
vt 0.200000 0.176208
vt 0.100000 0.147584
vt 0.200000 0.264312
vt 0.135586 0.234637
vt 0.064414 0.234637
vt 0.300000 0.000000
vt 0.400000 0.088104
vt 0.400000 0.176208
vt 0.300000 0.147584
vt 0.400000 0.264312
vt 0.335586 0.234637
vt 0.264414 0.234637
vt 0.500000 0.000000
vt 0.500000 0.147584
vt 0.535586 0.234637
vt 0.464414 0.234637
f 1/1/1 2/2/2 3/3/3
f 2/2/2 4/4/4 5/5/5
f 2/2/2 5/5/5 3/3/3
f 3/3/3 5/5/5 6/6/6
f 4/4/4 7/7/7 8/8/8
f 4/4/4 8/8/8 5/5/5
f 5/5/5 8/8/8 9/9/9
f 5/5/5 9/9/9 6/6/6
f 6/6/6 9/9/9 10/10/10
f 7/7/7 11/11/11 12/12/12
f 7/7/7 12/12/12 8/8/8
f 8/8/8 12/12/12 13/13/13
f 8/8/8 13/13/13 9/9/9
f 9/9/9 13/13/13 14/14/14
f 9/9/9 14/14/14 10/10/10
f 10/10/10 14/14/14 15/15/15
f 1/16/1 3/3/3 16/17/16
f 3/3/3 6/6/6 17/18/17
f 3/3/3 17/18/17 16/17/16
f 16/17/16 17/18/17 18/19/18
f 6/6/6 10/10/10 19/20/19
f 6/6/6 19/20/19 17/18/17
f 17/18/17 19/20/19 20/21/20
f 17/18/17 20/21/20 18/19/18
f 18/19/18 20/21/20 21/22/21
f 10/10/10 15/15/15 22/23/22
f 10/10/10 22/23/22 19/20/19
f 19/20/19 22/23/22 23/24/23
f 19/20/19 23/24/23 20/21/20
f 20/21/20 23/24/23 24/25/24
f 20/21/20 24/25/24 21/22/21
f 21/22/21 24/25/24 25/26/25
f 1/27/1 16/28/16 26/29/26
f 16/28/16 18/30/18 27/31/27
f 16/28/16 27/31/27 26/29/26
f 26/29/26 27/31/27 28/32/28
f 18/19/18 21/22/21 29/33/29
f 18/30/18 29/34/29 27/31/27
f 27/31/27 29/34/29 30/35/30
f 27/31/27 30/35/30 28/32/28
f 28/32/28 30/35/30 31/36/31
f 21/22/21 25/26/25 32/37/32
f 21/22/21 32/37/32 29/33/29
f 29/34/29 32/38/32 33/39/33
f 29/34/29 33/39/33 30/35/30
f 30/35/30 33/39/33 34/40/34
f 30/35/30 34/40/34 31/36/31
f 31/36/31 34/40/34 35/41/35
f 1/42/1 26/29/26 36/43/36
f 26/29/26 28/32/28 37/44/37
f 26/29/26 37/44/37 36/43/36
f 36/43/36 37/44/37 38/45/38
f 28/32/28 31/36/31 39/46/39
f 28/32/28 39/46/39 37/44/37
f 37/44/37 39/46/39 40/47/40
f 37/44/37 40/47/40 38/45/38
f 38/45/38 40/47/40 41/48/41
f 31/36/31 35/41/35 42/49/42
f 31/36/31 42/49/42 39/46/39
f 39/46/39 42/49/42 43/50/43
f 39/46/39 43/50/43 40/47/40
f 40/47/40 43/50/43 44/51/44
f 40/47/40 44/51/44 41/48/41
f 41/48/41 44/51/44 45/52/45
f 1/53/1 36/43/36 2/2/2
f 36/43/36 38/45/38 46/54/46
f 36/43/36 46/54/46 2/2/2
f 2/2/2 46/54/46 4/4/4
f 38/45/38 41/48/41 47/55/47
f 38/45/38 47/55/47 46/54/46
f 46/54/46 47/55/47 48/56/48
f 46/54/46 48/56/48 4/4/4
f 4/4/4 48/56/48 7/7/7
f 41/48/41 45/52/45 49/57/49
f 41/48/41 49/57/49 47/55/47
f 47/55/47 49/57/49 50/58/50
f 47/55/47 50/58/50 48/56/48
f 48/56/48 50/58/50 51/59/51
f 48/56/48 51/59/51 7/7/7
f 7/7/7 51/59/51 11/11/11
f 11/11/11 52/60/52 53/61/53
f 52/60/52 54/62/54 55/63/55
f 52/60/52 55/63/55 53/61/53
f 53/61/53 55/63/55 56/64/56
f 54/62/54 57/65/57 58/66/58
f 54/62/54 58/66/58 55/63/55
f 55/63/55 58/66/58 59/67/59
f 55/63/55 59/67/59 56/64/56
f 56/64/56 59/67/59 60/68/60
f 57/65/57 61/69/61 62/70/62
f 57/65/57 62/70/62 58/66/58
f 58/66/58 62/70/62 63/71/63
f 58/66/58 63/71/63 59/67/59
f 59/67/59 63/71/63 64/72/64
f 59/67/59 64/72/64 60/68/60
f 60/68/60 64/72/64 65/73/65
f 15/15/15 66/74/66 67/75/67
f 66/74/66 68/76/68 69/77/69
f 66/74/66 69/77/69 67/75/67
f 67/75/67 69/77/69 70/78/70
f 68/76/68 71/79/71 72/80/72
f 68/76/68 72/80/72 69/77/69
f 69/77/69 72/80/72 73/81/73
f 69/77/69 73/81/73 70/78/70
f 70/78/70 73/81/73 74/82/74
f 71/79/71 65/73/65 75/83/75
f 71/79/71 75/83/75 72/80/72
f 72/80/72 75/83/75 76/84/76
f 72/80/72 76/84/76 73/81/73
f 73/81/73 76/84/76 77/85/77
f 73/81/73 77/85/77 74/82/74
f 74/82/74 77/85/77 78/86/78
f 25/26/25 79/87/79 80/88/80
f 79/87/79 81/89/81 82/90/82
f 79/87/79 82/90/82 80/88/80
f 80/88/80 82/90/82 83/91/83
f 81/89/81 84/92/84 85/93/85
f 81/89/81 85/93/85 82/90/82
f 82/90/82 85/93/85 86/94/86
f 82/90/82 86/94/86 83/91/83
f 83/91/83 86/94/86 87/95/87
f 84/92/84 78/86/78 88/96/88
f 84/92/84 88/96/88 85/93/85
f 85/93/85 88/96/88 89/97/89
f 85/93/85 89/97/89 86/94/86
f 86/94/86 89/97/89 90/98/90
f 86/94/86 90/98/90 87/95/87
f 87/99/87 90/100/90 91/101/91
f 35/41/35 92/102/92 93/103/93
f 92/102/92 94/104/94 95/105/95
f 92/102/92 95/105/95 93/103/93
f 93/103/93 95/105/95 96/106/96
f 94/104/94 97/107/97 98/108/98
f 94/104/94 98/108/98 95/105/95
f 95/105/95 98/108/98 99/109/99
f 95/105/95 99/109/99 96/106/96
f 96/106/96 99/109/99 100/110/100
f 97/107/97 91/101/91 101/111/101
f 97/107/97 101/111/101 98/108/98
f 98/108/98 101/111/101 102/112/102
f 98/108/98 102/112/102 99/109/99
f 99/109/99 102/112/102 103/113/103
f 99/109/99 103/113/103 100/110/100
f 100/110/100 103/113/103 104/114/104
f 45/52/45 105/115/105 106/116/106
f 105/115/105 107/117/107 108/118/108
f 105/115/105 108/118/108 106/116/106
f 106/116/106 108/118/108 109/119/109
f 107/117/107 110/120/110 111/121/111
f 107/117/107 111/121/111 108/118/108
f 108/118/108 111/121/111 112/122/112
f 108/118/108 112/122/112 109/119/109
f 109/119/109 112/122/112 113/123/113
f 110/120/110 104/114/104 114/124/114
f 110/120/110 114/124/114 111/121/111
f 111/121/111 114/124/114 115/125/115
f 111/121/111 115/125/115 112/122/112
f 112/122/112 115/125/115 116/126/116
f 112/122/112 116/126/116 113/123/113
f 113/123/113 116/126/116 61/69/61
f 65/73/65 71/79/71 60/68/60
f 71/79/71 68/76/68 117/127/117
f 71/79/71 117/127/117 60/68/60
f 60/68/60 117/127/117 56/64/56
f 68/76/68 66/74/66 118/128/118
f 68/76/68 118/128/118 117/127/117
f 117/127/117 118/128/118 119/129/119
f 117/127/117 119/129/119 56/64/56
f 56/64/56 119/129/119 53/61/53
f 66/74/66 15/15/15 14/14/14
f 66/74/66 14/14/14 118/128/118
f 118/128/118 14/14/14 13/13/13
f 118/128/118 13/13/13 119/129/119
f 119/129/119 13/13/13 12/12/12
f 119/129/119 12/12/12 53/61/53
f 53/61/53 12/12/12 11/11/11
f 78/86/78 84/92/84 74/82/74
f 84/92/84 81/89/81 120/130/120
f 84/92/84 120/130/120 74/82/74
f 74/82/74 120/130/120 70/78/70
f 81/89/81 79/87/79 121/131/121
f 81/89/81 121/131/121 120/130/120
f 120/130/120 121/131/121 122/132/122
f 120/130/120 122/132/122 70/78/70
f 70/78/70 122/132/122 67/75/67
f 79/87/79 25/26/25 24/25/24
f 79/87/79 24/25/24 121/131/121
f 121/131/121 24/25/24 23/24/23
f 121/131/121 23/24/23 122/132/122
f 122/132/122 23/24/23 22/23/22
f 122/132/122 22/23/22 67/75/67
f 67/75/67 22/23/22 15/15/15
f 91/101/91 97/107/97 87/99/87
f 97/107/97 94/104/94 123/133/123
f 97/107/97 123/133/123 87/99/87
f 87/99/87 123/133/123 83/134/83
f 94/104/94 92/102/92 124/135/124
f 94/104/94 124/135/124 123/133/123
f 123/133/123 124/135/124 125/136/125
f 123/133/123 125/136/125 83/134/83
f 83/91/83 125/137/125 80/88/80
f 92/102/92 35/41/35 34/40/34
f 92/102/92 34/40/34 124/135/124
f 124/135/124 34/40/34 33/39/33
f 124/135/124 33/39/33 125/136/125
f 125/136/125 33/39/33 32/38/32
f 125/137/125 32/37/32 80/88/80
f 80/88/80 32/37/32 25/26/25
f 104/114/104 110/120/110 100/110/100
f 110/120/110 107/117/107 126/138/126
f 110/120/110 126/138/126 100/110/100
f 100/110/100 126/138/126 96/106/96
f 107/117/107 105/115/105 127/139/127
f 107/117/107 127/139/127 126/138/126
f 126/138/126 127/139/127 128/140/128
f 126/138/126 128/140/128 96/106/96
f 96/106/96 128/140/128 93/103/93
f 105/115/105 45/52/45 44/51/44
f 105/115/105 44/51/44 127/139/127
f 127/139/127 44/51/44 43/50/43
f 127/139/127 43/50/43 128/140/128
f 128/140/128 43/50/43 42/49/42
f 128/140/128 42/49/42 93/103/93
f 93/103/93 42/49/42 35/41/35
f 61/69/61 57/65/57 113/123/113
f 57/65/57 54/62/54 129/141/129
f 57/65/57 129/141/129 113/123/113
f 113/123/113 129/141/129 109/119/109
f 54/62/54 52/60/52 130/142/130
f 54/62/54 130/142/130 129/141/129
f 129/141/129 130/142/130 131/143/131
f 129/141/129 131/143/131 109/119/109
f 109/119/109 131/143/131 106/116/106
f 52/60/52 11/11/11 51/59/51
f 52/60/52 51/59/51 130/142/130
f 130/142/130 51/59/51 50/58/50
f 130/142/130 50/58/50 131/143/131
f 131/143/131 50/58/50 49/57/49
f 131/143/131 49/57/49 106/116/106
f 106/116/106 49/57/49 45/52/45
f 132/144/132 133/145/133 134/146/134
f 133/145/133 135/147/135 136/148/136
f 133/145/133 136/148/136 134/146/134
f 134/146/134 136/148/136 137/149/137
f 135/147/135 138/150/138 139/151/139
f 135/147/135 139/151/139 136/148/136
f 136/148/136 139/151/139 140/152/140
f 136/148/136 140/152/140 137/149/137
f 137/149/137 140/152/140 141/153/141
f 138/150/138 78/86/78 77/85/77
f 138/150/138 77/85/77 139/151/139
f 139/151/139 77/85/77 76/84/76
f 139/151/139 76/84/76 140/152/140
f 140/152/140 76/84/76 75/83/75
f 140/152/140 75/83/75 141/153/141
f 141/153/141 75/83/75 65/73/65
f 132/154/132 142/155/142 133/156/133
f 142/155/142 143/157/143 144/158/144
f 142/155/142 144/158/144 133/156/133
f 133/145/133 144/159/144 135/147/135
f 143/157/143 145/160/145 146/161/146
f 143/157/143 146/161/146 144/158/144
f 144/159/144 146/162/146 147/163/147
f 144/159/144 147/163/147 135/147/135
f 135/147/135 147/163/147 138/150/138
f 145/160/145 91/101/91 90/100/90
f 145/160/145 90/100/90 146/161/146
f 146/162/146 90/98/90 89/97/89
f 146/162/146 89/97/89 147/163/147
f 147/163/147 89/97/89 88/96/88
f 147/163/147 88/96/88 138/150/138
f 138/150/138 88/96/88 78/86/78
f 132/164/132 148/165/148 142/155/142
f 148/165/148 149/166/149 150/167/150
f 148/165/148 150/167/150 142/155/142
f 142/155/142 150/167/150 143/157/143
f 149/166/149 151/168/151 152/169/152
f 149/166/149 152/169/152 150/167/150
f 150/167/150 152/169/152 153/170/153
f 150/167/150 153/170/153 143/157/143
f 143/157/143 153/170/153 145/160/145
f 151/168/151 104/114/104 103/113/103
f 151/168/151 103/113/103 152/169/152
f 152/169/152 103/113/103 102/112/102
f 152/169/152 102/112/102 153/170/153
f 153/170/153 102/112/102 101/111/101
f 153/170/153 101/111/101 145/160/145
f 145/160/145 101/111/101 91/101/91
f 132/171/132 154/172/154 148/165/148
f 154/172/154 155/173/155 156/174/156
f 154/172/154 156/174/156 148/165/148
f 148/165/148 156/174/156 149/166/149
f 155/173/155 157/175/157 158/176/158
f 155/173/155 158/176/158 156/174/156
f 156/174/156 158/176/158 159/177/159
f 156/174/156 159/177/159 149/166/149
f 149/166/149 159/177/159 151/168/151
f 157/175/157 61/69/61 116/126/116
f 157/175/157 116/126/116 158/176/158
f 158/176/158 116/126/116 115/125/115
f 158/176/158 115/125/115 159/177/159
f 159/177/159 115/125/115 114/124/114
f 159/177/159 114/124/114 151/168/151
f 151/168/151 114/124/114 104/114/104
f 132/178/132 134/146/134 154/172/154
f 134/146/134 137/149/137 160/179/160
f 134/146/134 160/179/160 154/172/154
f 154/172/154 160/179/160 155/173/155
f 137/149/137 141/153/141 161/180/161
f 137/149/137 161/180/161 160/179/160
f 160/179/160 161/180/161 162/181/162
f 160/179/160 162/181/162 155/173/155
f 155/173/155 162/181/162 157/175/157
f 141/153/141 65/73/65 64/72/64
f 141/153/141 64/72/64 161/180/161
f 161/180/161 64/72/64 63/71/63
f 161/180/161 63/71/63 162/181/162
f 162/181/162 63/71/63 62/70/62
f 162/181/162 62/70/62 157/175/157
f 157/175/157 62/70/62 61/69/61
