#
#
#

mtllib Station.mtl


#
# orig_02___Default Mesh
#
g orig_02___Default Mesh


#
# orig_02___Default Mesh_lambert2SG
#
usemtl orig_02___Default Mesh_lambert2SG

v 0.101008 -0.323111 -0.107261
v 0.071424 -0.323111 -0.178684
v 0.071424 0.635001 -0.178684
v 0.101008 0.635001 -0.107261
v 0.000000 -0.323111 -0.208269
v 0.000000 0.635001 -0.208269
v -0.071424 -0.323111 -0.178684
v -0.071424 0.635001 -0.178684
v -0.101008 -0.323111 -0.107260
v -0.101008 0.635001 -0.107260
v -0.071424 -0.323111 -0.035837
v -0.071424 0.635001 -0.035837
v 0.000000 -0.323111 -0.006252
v 0.000000 0.635001 -0.006252
v 0.071424 -0.323111 -0.035837
v 0.071424 0.635001 -0.035837
v 0.000000 -0.642334 0.038573
v -0.103120 -0.642334 -0.004140
v -0.145834 -0.642334 -0.107260
v -0.103120 -0.642334 -0.210380
v 0.000000 -0.642334 -0.253094
v 0.103120 -0.642334 -0.210380
v 0.145834 -0.642334 -0.107261
v 0.103120 -0.642334 -0.004141
v -0.059890 0.082422 0.064535
v -0.059890 0.082422 -0.057851
v 0.062496 0.082422 -0.057851
v 0.062496 0.082422 0.064535
v -0.059890 0.204808 0.064535
v 0.062496 0.204808 0.064535
v 0.062496 0.204808 -0.057851
v -0.059890 0.204808 -0.057851
v -0.059890 -0.161269 0.064535
v -0.059890 -0.161269 -0.057851
v 0.062496 -0.161269 -0.057851
v 0.062496 -0.161269 0.064535
v -0.059890 -0.038882 0.064535
v 0.062496 -0.038882 0.064535
v 0.062496 -0.038882 -0.057851
v -0.059890 -0.038882 -0.057851
v 0.101008 -0.271325 0.114748
v 0.071424 -0.271325 0.043324
v 0.071424 0.255984 0.043324
v 0.101008 0.255984 0.114748
v 0.000000 -0.271325 0.013740
v 0.000000 0.255984 0.013740
v -0.071424 -0.271325 0.043324
v -0.071424 0.255984 0.043324
v -0.101008 -0.271325 0.114748
v -0.101008 0.255984 0.114748
v -0.071424 -0.271325 0.186172
v -0.071424 0.255984 0.186172
v 0.000000 -0.271325 0.215756
v 0.000000 0.255984 0.215756
v 0.071424 -0.271325 0.186172
v 0.071424 0.255984 0.186172
v -0.092638 0.150294 -0.199087
v -0.092638 0.150294 -0.562506
v 0.083188 0.048780 -0.562506
v 0.083188 0.048780 -0.199087
v -0.084517 0.164360 -0.199087
v 0.091310 0.062846 -0.199087
v 0.091310 0.062846 -0.562506
v -0.084517 0.164360 -0.562506
v -0.092638 0.005066 -0.199087
v -0.092638 0.005066 -0.562506
v 0.083188 -0.096447 -0.562506
v 0.083188 -0.096447 -0.199087
v -0.084517 0.019132 -0.199087
v 0.091310 -0.082381 -0.199087
v 0.091310 -0.082381 -0.562506
v -0.084517 0.019132 -0.562506
v -0.079161 0.041692 0.566649
v -0.079161 0.041692 0.203231
v 0.087149 0.158143 0.203231
v 0.087149 0.158143 0.566649
v -0.088477 0.054997 0.566649
v 0.077833 0.171448 0.566649
v 0.077833 0.171448 0.203231
v -0.088477 0.054997 0.203231
v -0.079161 -0.103536 0.566649
v -0.079161 -0.103536 0.203231
v 0.087149 0.012916 0.203231
v 0.087149 0.012916 0.566649
v -0.088477 -0.090231 0.566649
v 0.077833 0.026221 0.566649
v 0.077833 0.026221 0.203231
v -0.088477 -0.090231 0.203231
v 0.123421 -0.387783 -0.107261
v 0.087272 -0.387783 -0.194532
v 0.087272 -0.387783 -0.019989
v 0.000000 -0.387783 0.016160
v -0.087272 -0.387783 -0.019989
v -0.123421 -0.387783 -0.107260
v -0.087272 -0.387783 -0.194532
v 0.000000 -0.387783 -0.230681
v 0.061673 0.163352 0.086195
v 0.061673 0.163352 -0.082700
v 0.137509 0.163352 -0.082700
v 0.137509 0.163352 0.086195
v 0.061673 0.168368 0.086195
v 0.137509 0.168368 0.086195
v 0.137509 0.168368 -0.082700
v 0.061673 0.168368 -0.082700
v 0.082306 0.109157 -0.016050
v 0.082306 0.163597 -0.070491
v 0.116876 0.163597 -0.070491
v 0.116876 0.109157 -0.016050
v 0.082306 0.110774 -0.014434
v 0.116876 0.110774 -0.014434
v 0.116876 0.165214 -0.068874
v 0.082306 0.165214 -0.068874
v 0.061673 0.107184 0.086195
v 0.061673 0.107184 -0.082700
v 0.137509 0.107184 -0.082700
v 0.137509 0.107184 0.086195
v 0.061673 0.112200 0.086195
v 0.137509 0.112200 0.086195
v 0.137509 0.112200 -0.082700
v 0.061673 0.112200 -0.082700
v 0.061673 -0.078727 0.086195
v 0.061673 -0.078727 -0.082700
v 0.137509 -0.078727 -0.082700
v 0.137509 -0.078727 0.086195
v 0.061673 -0.073711 0.086195
v 0.137509 -0.073711 0.086195
v 0.137509 -0.073711 -0.082700
v 0.061673 -0.073711 -0.082700
v 0.082306 -0.133367 -0.016050
v 0.082306 -0.078926 -0.070491
v 0.116876 -0.078926 -0.070491
v 0.116876 -0.133367 -0.016050
v 0.082306 -0.131750 -0.014434
v 0.116876 -0.131750 -0.014434
v 0.116876 -0.077309 -0.068874
v 0.082306 -0.077309 -0.068874
v 0.061673 -0.134895 0.086195
v 0.061673 -0.134895 -0.082700
v 0.137509 -0.134895 -0.082700
v 0.137509 -0.134895 0.086195
v 0.061673 -0.129879 0.086195
v 0.137509 -0.129879 0.086195
v 0.137509 -0.129879 -0.082700
v 0.061673 -0.129879 -0.082700
v -0.137177 0.163352 0.086195
v -0.137177 0.163352 -0.082700
v -0.061341 0.163352 -0.082700
v -0.061341 0.163352 0.086195
v -0.137177 0.168368 0.086195
v -0.061341 0.168368 0.086195
v -0.061341 0.168368 -0.082700
v -0.137177 0.168368 -0.082700
v -0.116544 0.109157 -0.016050
v -0.116544 0.163597 -0.070491
v -0.081975 0.163597 -0.070491
v -0.081975 0.109157 -0.016050
v -0.116544 0.110774 -0.014434
v -0.081975 0.110774 -0.014434
v -0.081975 0.165214 -0.068874
v -0.116544 0.165214 -0.068874
v -0.137177 0.107184 0.086195
v -0.137177 0.107184 -0.082700
v -0.061341 0.107184 -0.082700
v -0.061341 0.107184 0.086195
v -0.137177 0.112200 0.086195
v -0.061341 0.112200 0.086195
v -0.061341 0.112200 -0.082700
v -0.137177 0.112200 -0.082700
v -0.137177 -0.078727 0.086195
v -0.137177 -0.078727 -0.082700
v -0.061341 -0.078727 -0.082700
v -0.061341 -0.078727 0.086195
v -0.137177 -0.073711 0.086195
v -0.061341 -0.073711 0.086195
v -0.061341 -0.073711 -0.082700
v -0.137177 -0.073711 -0.082700
v -0.116544 -0.133367 -0.016050
v -0.116544 -0.078926 -0.070491
v -0.081975 -0.078926 -0.070491
v -0.081975 -0.133367 -0.016050
v -0.116544 -0.131750 -0.014434
v -0.081975 -0.131750 -0.014434
v -0.081975 -0.077309 -0.068874
v -0.116544 -0.077309 -0.068874
v -0.137177 -0.134895 0.086195
v -0.137177 -0.134895 -0.082700
v -0.061341 -0.134895 -0.082700
v -0.061341 -0.134895 0.086195
v -0.137177 -0.129879 0.086195
v -0.061341 -0.129879 0.086195
v -0.061341 -0.129879 -0.082700
v -0.137177 -0.129879 -0.082700
vn 0.986004 0.166687 -0.003322
vn 0.694864 0.166687 -0.699557
vn 0.543714 0.731307 -0.411783
vn 0.932815 0.336556 0.128790
vn -0.003322 0.166683 -0.986005
vn 0.128796 0.336557 -0.932814
vn -0.699562 0.166684 -0.694859
vn -0.346057 0.819431 -0.456921
vn 0.128796 0.336557 -0.932814
vn -0.986004 0.166687 0.003322
vn -0.932815 0.336556 -0.128790
vn -0.699562 0.166684 -0.694859
vn -0.694864 0.166687 0.699557
vn -0.543714 0.731307 0.411784
vn -0.932815 0.336556 -0.128790
vn 0.003322 0.166683 0.986005
vn -0.128796 0.336557 0.932814
vn 0.699562 0.166684 0.694859
vn 0.346057 0.819431 0.456921
vn 0.097271 -0.703020 0.704487
vn -0.582672 -0.261894 0.769353
vn -0.590444 -0.802950 0.081524
vn -0.769351 -0.261895 -0.582674
vn -0.097269 -0.703021 -0.704486
vn 0.582674 -0.261895 -0.769352
vn 0.590444 -0.802951 -0.081524
vn 0.769351 -0.261895 0.582674
vn -0.447214 -0.894427 0.000000
vn -0.894427 -0.447214 0.000000
vn 0.447214 -0.894427 0.000000
vn 0.894427 -0.447214 0.000000
vn -0.707107 0.707107 0.000000
vn 0.707107 0.707107 0.000000
vn 0.707107 0.707107 0.000000
vn -0.447214 -0.894427 0.000000
vn 0.567793 -0.819430 -0.078394
vn 0.568525 -0.336558 -0.750672
vn 0.543713 0.731308 -0.411783
vn 0.932815 0.336556 0.128791
vn -0.093284 -0.731306 -0.675641
vn 0.128791 0.336556 -0.932815
vn -0.750672 -0.336558 -0.568524
vn -0.346053 0.819432 -0.456924
vn -0.567793 -0.819430 0.078394
vn -0.932815 0.336556 -0.128791
vn -0.568525 -0.336558 0.750672
vn -0.543713 0.731308 0.411783
vn -0.932815 0.336556 -0.128791
vn 0.093284 -0.731306 0.675641
vn -0.128791 0.336556 0.932815
vn 0.750672 -0.336558 0.568524
vn 0.346053 0.819432 0.456924
vn 0.567793 -0.819430 -0.078394
vn 0.346053 0.819432 0.456924
vn 0.750672 -0.336558 0.568524
vn -0.750672 -0.336558 -0.568524
vn 0.750672 -0.336558 0.568524
vn -0.622010 -0.410682 0.666666
vn -0.911231 0.054695 -0.408248
vn -0.044669 -0.744023 -0.666659
vn 0.502952 -0.761826 0.408242
vn -0.244017 0.910684 0.333334
vn 0.557672 0.149412 0.816504
vn 0.910688 0.243992 -0.333341
vn -0.149429 0.557677 -0.816497
vn -0.044669 -0.744023 -0.666659
vn 0.910688 0.243992 -0.333341
vn 0.910688 0.243992 -0.333341
vn -0.622008 -0.410684 0.666667
vn -0.911231 0.054695 -0.408249
vn -0.044666 -0.744024 -0.666659
vn 0.502952 -0.761826 0.408241
vn -0.244019 0.910683 0.333333
vn 0.557670 0.149413 0.816504
vn 0.910687 0.243994 -0.333342
vn -0.149431 0.557678 -0.816496
vn -0.244019 0.910683 0.333333
vn -0.044666 -0.744024 -0.666659
vn -0.044666 -0.744024 -0.666659
vn -0.044666 -0.744024 -0.666659
vn -0.622008 -0.410684 0.666667
vn 0.109330 -0.737293 0.666668
vn -0.434682 -0.802735 -0.408250
vn 0.655435 -0.354913 -0.666665
vn 0.902999 0.133896 0.408247
vn -0.928485 0.163724 0.333332
vn 0.100260 0.568576 0.816498
vn 0.163724 0.928484 -0.333335
vn -0.568581 0.100261 -0.816495
vn 0.655434 -0.354913 -0.666665
vn 0.902999 0.133896 0.408247
vn 0.109333 -0.737292 0.666669
vn -0.434681 -0.802735 -0.408250
vn 0.655436 -0.354911 -0.666665
vn 0.902999 0.133897 0.408246
vn -0.928486 0.163722 0.333331
vn 0.100259 0.568576 0.816499
vn 0.163722 0.928484 -0.333336
vn -0.568581 0.100260 -0.816494
vn 0.163722 0.928484 -0.333336
vn 0.986004 0.166687 -0.003322
vn 0.977782 0.209602 0.003071
vn 0.693567 0.209598 -0.689227
vn 0.986004 0.166687 -0.003322
vn 0.689227 0.209601 0.693567
vn -0.003069 0.209598 0.977783
vn 0.689226 0.209601 0.693567
vn 0.003322 0.166683 0.986005
vn -0.694864 0.166687 0.699557
vn -0.693567 0.209599 0.689226
vn -0.694864 0.166687 0.699557
vn -0.986004 0.166687 0.003322
vn -0.977782 0.209602 -0.003071
vn -0.694864 0.166687 0.699557
vn -0.689227 0.209601 -0.693567
vn -0.977782 0.209602 -0.003071
vn 0.003071 0.209597 -0.977783
vn 0.694864 0.166687 -0.699557
vn 0.693567 0.209598 -0.689227
vn 0.003071 0.209597 -0.977783
vn 0.977782 0.209602 0.003071
vn 0.693567 0.209598 -0.689227
vn 0.689227 0.209601 0.693567
vn 0.590444 -0.802951 -0.081524
vn -0.003069 0.209598 0.977783
vn -0.693567 0.209599 0.689226
vn 0.097271 -0.703020 0.704486
vn -0.003069 0.209598 0.977783
vn -0.693567 0.209599 0.689226
vn -0.977782 0.209602 -0.003071
vn -0.977782 0.209602 -0.003071
vn -0.590444 -0.802950 0.081524
vn -0.977782 0.209602 -0.003071
vn 0.003071 0.209597 -0.977783
vn -0.689226 0.209601 -0.693567
vn -0.097269 -0.703021 -0.704486
vn -0.333333 -0.666667 0.666667
vn -0.816497 -0.408248 -0.408248
vn 0.333333 -0.666667 -0.666667
vn 0.816497 -0.408248 0.408248
vn -0.666667 0.666667 0.333333
vn 0.408248 0.408248 0.816497
vn 0.666667 0.666667 -0.333333
vn -0.408248 0.408248 -0.816497
vn -0.333378 -0.942793 0.000150
vn -0.816499 -0.000001 -0.577347
vn 0.333334 -0.000005 -0.942809
vn 0.816538 -0.577292 0.000092
vn -0.666621 0.235758 0.707131
vn 0.408206 -0.288467 0.866114
vn 0.666668 0.707106 0.235700
vn -0.408248 0.866025 -0.288676
vn -0.333378 -0.942793 0.000150
vn 0.408206 -0.288467 0.866114
vn -0.333378 -0.942793 0.000150
vn 0.333334 -0.000005 -0.942809
vn -0.816497 -0.408248 -0.408248
vn 0.816497 -0.408248 0.408248
vn -0.333379 -0.942793 0.000146
vn -0.816497 0.000001 -0.577350
vn 0.333333 0.000000 -0.942809
vn 0.816540 -0.577289 0.000092
vn -0.666620 0.235753 0.707133
vn 0.408205 -0.288468 0.866115
vn 0.666668 0.707104 0.235707
vn -0.408249 0.866026 -0.288673
vn 0.408205 -0.288468 0.866115
vn -0.666620 0.235753 0.707133
vn 0.333333 0.000000 -0.942809
vn 0.666668 0.707104 0.235707
vn 0.333333 0.000000 -0.942809
vn -0.333378 -0.942793 0.000150
vn -0.816498 -0.000002 -0.577348
vn 0.333335 -0.000002 -0.942808
vn 0.816537 -0.577293 0.000092
vn -0.666621 0.235759 0.707131
vn 0.408206 -0.288469 0.866114
vn 0.666667 0.707107 0.235702
vn -0.408248 0.866026 -0.288675
vn -0.333378 -0.942793 0.000150
vn 0.816537 -0.577293 0.000092
vn 0.666667 0.707107 0.235702
vn -0.333379 -0.942793 0.000145
vn -0.816497 0.000000 -0.577350
vn 0.333333 0.000001 -0.942809
vn 0.816540 -0.577289 0.000091
vn -0.666621 0.235752 0.707133
vn 0.408205 -0.288471 0.866114
vn 0.666669 0.707104 0.235707
vn -0.408250 0.866025 -0.288674
vn 0.666669 0.707104 0.235706
vn 0.816540 -0.577289 0.000091
vn 0.333333 0.000001 -0.942809
vt 0.617489 0.012941
vt 0.988907 0.012941
vt 0.988907 0.988907
vt 0.617489 0.988907
vt 0.644117 0.467995
vt 0.709272 0.396891
vt 0.805623 0.392684
vt 0.876728 0.457839
vt 0.880934 0.554190
vt 0.815779 0.625295
vt 0.719428 0.629502
vt 0.648323 0.564346
vt 0.843522 0.414565
vt 0.888054 0.500110
vt 0.859053 0.592089
vt 0.773508 0.636621
vt 0.681529 0.607620
vt 0.636997 0.522075
vt 0.665998 0.430096
vt 0.751543 0.385564
vt 0.714611 0.144970
vt 0.903055 0.144970
vt 0.903055 0.346508
vt 0.714611 0.346508
vt 0.619338 0.016639
vt 0.981512 0.016639
vt 0.981512 0.990756
vt 0.619338 0.990756
vt 0.819574 0.425833
vt 0.858055 0.499754
vt 0.832995 0.579234
vt 0.759074 0.617715
vt 0.679594 0.592655
vt 0.641113 0.518734
vt 0.666173 0.439254
vt 0.740094 0.400773
vt 0.749584 0.400359
vt 0.826577 0.432251
vt 0.858469 0.509244
vt 0.826577 0.586237
vt 0.749584 0.618129
vt 0.672591 0.586237
vt 0.640699 0.509244
vt 0.672591 0.432251
vt 0.333704 0.993209
vt 0.333704 0.245308
vt 0.007949 0.245308
vt 0.007949 0.993209
vt 0.006378 0.989768
vt 0.335274 0.989768
vt 0.335274 0.245008
vt 0.006378 0.245008
vt 0.183626 0.989741
vt 0.174234 0.249600
vt 0.234560 0.248862
vt 0.243953 0.989003
f 1/1/1 2/2/2 3/3/3
f 3/3/3 4/4/4 1/1/1
f 2/1/2 5/2/5 6/3/6
f 6/3/6 3/4/3 2/1/2
f 5/1/5 7/2/7 8/3/8
f 8/3/8 6/4/9 5/1/5
f 7/1/7 9/2/10 10/3/11
f 10/3/11 8/4/8 7/1/12
f 9/1/10 11/2/13 12/3/14
f 12/3/14 10/4/15 9/1/10
f 11/1/13 13/2/16 14/3/17
f 14/3/17 12/4/14 11/1/13
f 13/1/16 15/2/18 16/3/19
f 16/3/19 14/4/17 13/1/16
f 15/1/18 1/2/1 4/3/4
f 4/3/4 16/4/19 15/1/18
f 17/5/20 18/6/21 19/7/22
f 19/7/22 20/8/23 21/9/24
f 21/9/24 22/10/25 23/11/26
f 19/7/22 21/9/24 23/11/26
f 17/5/20 19/7/22 23/11/26
f 24/12/27 17/5/20 23/11/26
f 3/13/3 6/14/6 8/15/8
f 8/15/8 10/16/11 12/17/14
f 12/17/14 14/18/17 16/19/19
f 8/15/8 12/17/14 16/19/19
f 3/13/3 8/15/8 16/19/19
f 4/20/4 3/13/3 16/19/19
f 25/21/28 26/22/29 27/23/30
f 27/23/30 28/24/31 25/21/28
f 29/21/32 30/22/33 31/23/34
f 31/23/34 32/24/32 29/21/32
f 28/21/31 27/22/30 31/23/34
f 31/23/34 30/24/33 28/21/31
f 26/21/29 25/22/28 29/23/32
f 29/23/32 32/24/32 26/21/29
f 33/21/35 34/22/29 35/23/30
f 35/23/30 36/24/31 33/21/35
f 37/21/32 38/22/34 39/23/34
f 39/23/34 40/24/32 37/21/32
f 36/21/31 35/22/30 39/23/34
f 39/23/34 38/24/34 36/21/31
f 34/21/29 33/22/35 37/23/32
f 37/23/32 40/24/32 34/21/29
f 41/25/36 42/26/37 43/27/38
f 43/27/38 44/28/39 41/25/36
f 42/25/37 45/26/40 46/27/41
f 46/27/41 43/28/38 42/25/37
f 45/25/40 47/26/42 48/27/43
f 48/27/43 46/28/41 45/25/40
f 47/25/42 49/26/44 50/27/45
f 50/27/45 48/28/43 47/25/42
f 49/25/44 51/26/46 52/27/47
f 52/27/47 50/28/48 49/25/44
f 51/25/46 53/26/49 54/27/50
f 54/27/50 52/28/47 51/25/46
f 53/25/49 55/26/51 56/27/52
f 56/27/52 54/28/50 53/25/49
f 55/25/51 41/26/53 44/27/39
f 44/27/39 56/28/54 55/25/55
f 53/29/49 51/30/46 49/31/44
f 49/31/44 47/32/56 45/33/40
f 45/33/40 42/34/37 41/35/53
f 49/31/44 45/33/40 41/35/36
f 53/29/49 49/31/44 41/35/36
f 55/36/57 53/29/49 41/35/53
f 43/37/38 46/38/41 48/39/43
f 48/39/43 50/40/45 52/41/47
f 52/41/47 54/42/50 56/43/52
f 48/39/43 52/41/47 56/43/52
f 43/37/38 48/39/43 56/43/52
f 44/44/39 43/37/38 56/43/52
f 57/45/58 58/46/59 59/47/60
f 59/47/60 60/48/61 57/45/58
f 61/49/62 62/50/63 63/51/64
f 63/51/64 64/52/65 61/49/62
f 57/53/58 60/54/61 62/55/63
f 62/55/63 61/56/62 57/53/58
f 60/53/61 59/54/66 63/55/67
f 63/55/68 62/56/63 60/53/61
f 59/53/60 58/54/59 64/55/65
f 64/55/65 63/56/64 59/53/60
f 58/53/59 57/54/58 61/55/62
f 61/55/62 64/56/65 58/53/59
f 65/45/69 66/46/70 67/47/71
f 67/47/71 68/48/72 65/45/69
f 69/49/73 70/50/74 71/51/75
f 71/51/75 72/52/76 69/49/73
f 65/53/69 68/54/72 70/55/74
f 70/55/74 69/56/77 65/53/69
f 68/53/72 67/54/78 71/55/75
f 71/55/75 70/56/74 68/53/72
f 67/53/79 66/54/70 72/55/76
f 72/55/76 71/56/75 67/53/80
f 66/53/70 65/54/81 69/55/73
f 69/55/73 72/56/76 66/53/70
f 73/45/82 74/46/83 75/47/84
f 75/47/84 76/48/85 73/45/82
f 77/49/86 78/50/87 79/51/88
f 79/51/88 80/52/89 77/49/86
f 73/53/82 76/54/85 78/55/87
f 78/55/87 77/56/86 73/53/82
f 76/53/85 75/54/90 79/55/88
f 79/55/88 78/56/87 76/53/91
f 75/53/90 74/54/83 80/55/89
f 80/55/89 79/56/88 75/53/84
f 74/53/83 73/54/82 77/55/86
f 77/55/86 80/56/89 74/53/83
f 81/45/92 82/46/93 83/47/94
f 83/47/94 84/48/95 81/45/92
f 85/49/96 86/50/97 87/51/98
f 87/51/98 88/52/99 85/49/96
f 81/53/92 84/54/95 86/55/97
f 86/55/97 85/56/96 81/53/92
f 84/53/95 83/54/94 87/55/98
f 87/55/100 86/56/97 84/53/95
f 83/53/94 82/54/93 88/55/99
f 88/55/99 87/56/98 83/53/94
f 82/53/93 81/54/92 85/55/96
f 85/55/96 88/56/99 82/53/93
f 2/1/2 1/2/101 89/3/102
f 89/3/102 90/4/103 2/1/2
f 1/1/104 15/2/18 91/3/105
f 91/3/105 89/4/102 1/1/104
f 15/1/18 13/2/16 92/3/106
f 92/3/106 91/4/107 15/1/18
f 13/1/108 11/2/109 93/3/110
f 93/3/110 92/4/106 13/1/16
f 11/1/111 9/2/112 94/3/113
f 94/3/113 93/4/110 11/1/114
f 9/1/112 7/2/7 95/3/115
f 95/3/115 94/4/116 9/1/112
f 7/1/7 5/2/5 96/3/117
f 96/3/117 95/4/115 7/1/7
f 5/1/5 2/2/118 90/3/103
f 90/3/119 96/4/120 5/1/5
f 90/1/119 89/2/121 23/3/26
f 23/3/26 22/4/25 90/1/122
f 89/1/102 91/2/123 24/3/27
f 24/3/27 23/4/124 89/1/102
f 91/1/123 92/2/106 17/3/20
f 17/3/20 24/4/27 91/1/105
f 92/1/125 93/2/126 18/3/21
f 18/3/21 17/4/127 92/1/128
f 93/1/129 94/2/130 19/3/22
f 19/3/22 18/4/21 93/1/126
f 94/1/131 95/2/115 20/3/23
f 20/3/23 19/4/132 94/1/133
f 95/1/115 96/2/134 21/3/24
f 21/3/24 20/4/23 95/1/135
f 96/1/117 90/2/103 22/3/25
f 22/3/25 21/4/136 96/1/117
f 97/21/137 98/22/138 99/23/139
f 99/23/139 100/24/140 97/21/137
f 101/21/141 102/22/142 103/23/143
f 103/23/143 104/24/144 101/21/141
f 97/21/137 100/22/140 102/23/142
f 102/23/142 101/24/141 97/21/137
f 100/21/140 99/22/139 103/23/143
f 103/23/143 102/24/142 100/21/140
f 99/21/139 98/22/138 104/23/144
f 104/23/144 103/24/143 99/21/139
f 98/21/138 97/22/137 101/23/141
f 101/23/141 104/24/144 98/21/138
f 105/21/145 106/22/146 107/23/147
f 107/23/147 108/24/148 105/21/145
f 109/21/149 110/22/150 111/23/151
f 111/23/151 112/24/152 109/21/149
f 105/21/153 108/22/148 110/23/150
f 110/23/154 109/24/149 105/21/155
f 108/21/148 107/22/147 111/23/151
f 111/23/151 110/24/150 108/21/148
f 107/21/156 106/22/146 112/23/152
f 112/23/152 111/24/151 107/21/156
f 106/21/146 105/22/145 109/23/149
f 109/23/149 112/24/152 106/21/146
f 113/21/137 114/22/138 115/23/139
f 115/23/139 116/24/140 113/21/137
f 117/21/141 118/22/142 119/23/143
f 119/23/143 120/24/144 117/21/141
f 113/21/137 116/22/140 118/23/142
f 118/23/142 117/24/141 113/21/137
f 116/21/140 115/22/139 119/23/143
f 119/23/143 118/24/142 116/21/140
f 115/21/139 114/22/138 120/23/144
f 120/23/144 119/24/143 115/21/139
f 114/21/138 113/22/137 117/23/141
f 117/23/141 120/24/144 114/21/138
f 121/21/137 122/22/157 123/23/139
f 123/23/139 124/24/158 121/21/137
f 125/21/141 126/22/142 127/23/143
f 127/23/143 128/24/144 125/21/141
f 121/21/137 124/22/158 126/23/142
f 126/23/142 125/24/141 121/21/137
f 124/21/158 123/22/139 127/23/143
f 127/23/143 126/24/142 124/21/158
f 123/21/139 122/22/157 128/23/144
f 128/23/144 127/24/143 123/21/139
f 122/21/157 121/22/137 125/23/141
f 125/23/141 128/24/144 122/21/157
f 129/21/159 130/22/160 131/23/161
f 131/23/161 132/24/162 129/21/159
f 133/21/163 134/22/164 135/23/165
f 135/23/165 136/24/166 133/21/163
f 129/21/159 132/22/162 134/23/164
f 134/23/167 133/24/168 129/21/159
f 132/21/162 131/22/161 135/23/165
f 135/23/165 134/24/164 132/21/162
f 131/21/169 130/22/160 136/23/166
f 136/23/166 135/24/170 131/21/171
f 130/21/160 129/22/159 133/23/163
f 133/23/163 136/24/166 130/21/160
f 137/21/137 138/22/138 139/23/139
f 139/23/139 140/24/140 137/21/137
f 141/21/141 142/22/142 143/23/143
f 143/23/143 144/24/144 141/21/141
f 137/21/137 140/22/140 142/23/142
f 142/23/142 141/24/141 137/21/137
f 140/21/140 139/22/139 143/23/143
f 143/23/143 142/24/142 140/21/140
f 139/21/139 138/22/138 144/23/144
f 144/23/144 143/24/143 139/21/139
f 138/21/138 137/22/137 141/23/141
f 141/23/141 144/24/144 138/21/138
f 145/21/137 146/22/138 147/23/139
f 147/23/139 148/24/140 145/21/137
f 149/21/141 150/22/142 151/23/143
f 151/23/143 152/24/144 149/21/141
f 145/21/137 148/22/140 150/23/142
f 150/23/142 149/24/141 145/21/137
f 148/21/140 147/22/139 151/23/143
f 151/23/143 150/24/142 148/21/140
f 147/21/139 146/22/138 152/23/144
f 152/23/144 151/24/143 147/21/139
f 146/21/138 145/22/137 149/23/141
f 149/23/141 152/24/144 146/21/138
f 153/21/172 154/22/173 155/23/174
f 155/23/174 156/24/175 153/21/172
f 157/21/176 158/22/177 159/23/178
f 159/23/178 160/24/179 157/21/176
f 153/21/180 156/22/175 158/23/177
f 158/23/177 157/24/176 153/21/172
f 156/21/181 155/22/174 159/23/182
f 159/23/178 158/24/177 156/21/175
f 155/21/174 154/22/173 160/23/179
f 160/23/179 159/24/182 155/21/174
f 154/21/173 153/22/172 157/23/176
f 157/23/176 160/24/179 154/21/173
f 161/21/137 162/22/138 163/23/139
f 163/23/139 164/24/140 161/21/137
f 165/21/141 166/22/142 167/23/143
f 167/23/143 168/24/144 165/21/141
f 161/21/137 164/22/140 166/23/142
f 166/23/142 165/24/141 161/21/137
f 164/21/140 163/22/139 167/23/143
f 167/23/143 166/24/142 164/21/140
f 163/21/139 162/22/138 168/23/144
f 168/23/144 167/24/143 163/21/139
f 162/21/138 161/22/137 165/23/141
f 165/23/141 168/24/144 162/21/138
f 169/21/137 170/22/157 171/23/139
f 171/23/139 172/24/158 169/21/137
f 173/21/141 174/22/142 175/23/143
f 175/23/143 176/24/144 173/21/141
f 169/21/137 172/22/158 174/23/142
f 174/23/142 173/24/141 169/21/137
f 172/21/158 171/22/139 175/23/143
f 175/23/143 174/24/142 172/21/158
f 171/21/139 170/22/157 176/23/144
f 176/23/144 175/24/143 171/21/139
f 170/21/157 169/22/137 173/23/141
f 173/23/141 176/24/144 170/21/157
f 177/21/183 178/22/184 179/23/185
f 179/23/185 180/24/186 177/21/183
f 181/21/187 182/22/188 183/23/189
f 183/23/189 184/24/190 181/21/187
f 177/21/183 180/22/186 182/23/188
f 182/23/188 181/24/187 177/21/183
f 180/21/186 179/22/185 183/23/191
f 183/23/189 182/24/188 180/21/192
f 179/21/185 178/22/184 184/23/190
f 184/23/190 183/24/189 179/21/193
f 178/21/184 177/22/183 181/23/187
f 181/23/187 184/24/190 178/21/184
f 185/21/137 186/22/138 187/23/139
f 187/23/139 188/24/140 185/21/137
f 189/21/141 190/22/142 191/23/143
f 191/23/143 192/24/144 189/21/141
f 185/21/137 188/22/140 190/23/142
f 190/23/142 189/24/141 185/21/137
f 188/21/140 187/22/139 191/23/143
f 191/23/143 190/24/142 188/21/140
f 187/21/139 186/22/138 192/23/144
f 192/23/144 191/24/143 187/21/139
f 186/21/138 185/22/137 189/23/141
f 189/23/141 192/24/144 186/21/138
